# ProBuilder 4.2.3
# https://unity3d.com/unity/features/worldbuilding/probuilder
# 5/24/2020 5:12:43 AM

mtllib ./Shard.mtl
o Shard

g Shard
v 6.67572E-05 -0.5 6.67572E-05
v 0 0.3491421 0.1508579
v 0.1508579 0.3491421 0.1508579
v -0.1508579 0.3491421 0.1508579
v -0.04577494 0.5 0.04577541
v 0 0.5 0.04577541
v 0.04577494 0.5 0.04577541
v -0.1508579 0.3491421 0
v -0.1508579 0.3491421 -0.1508579
v -0.04577494 0.5 -0.04577541
v -0.04577494 0.5 0
v 0 0.3491421 -0.1508579
v 0.1508579 0.3491421 -0.1508579
v 0.04577494 0.5 -0.04577541
v 0 0.5 -0.04577541
v 0.1508579 0.3491421 0
v 0.04577494 0.5 0
v 0 0.5 0

vt 6.67572E-05 -0.4883597
vt 0 0.308622
vt 0.1508579 0.308622
vt -0.1508579 0.308622
vt -0.04577494 0.4785197
vt 0 0.4785197
vt 0.04577494 0.4785197
vt -0.04577494 0.04577541
vt 0 0.04577541
vt 0 0
vt -0.04577494 0
vt 0.04577494 0.04577541
vt 0.04577494 0
vt 0.04577494 -0.04577541
vt 0 -0.04577541
vt -0.04577494 -0.04577541

vn 0 -0.1748452 0.984596
vn 0 0.5715697 0.8205535
vn -0.984596 -0.1748452 0
vn -0.8205523 0.5715715 0
vn 0 -0.1748452 -0.984596
vn 0 0.5715697 -0.8205535
vn 0.984596 -0.1748452 0
vn 0.8205523 0.5715715 0
vn 0 1 0
vn 0 0 0

usemtl ProBuilderDefault
f 3/3/1 2/2/1 1/1/1 1/1/1
f 2/2/1 4/4/1 1/1/1 1/1/1
f 6/6/2 5/5/2 4/4/2 2/2/2
f 7/7/2 6/6/2 2/2/2 3/3/2
f 4/3/3 8/2/3 1/1/3 1/1/3
f 8/2/3 9/4/3 1/1/3 1/1/3
f 11/6/4 10/5/4 9/4/4 8/2/4
f 5/7/4 11/6/4 8/2/4 4/3/4
f 1/1/5 9/3/5 12/2/5 1/1/5
f 1/1/5 12/2/5 13/4/5 1/1/5
f 12/2/6 15/6/6 14/5/6 13/4/6
f 9/3/6 10/7/6 15/6/6 12/2/6
f 1/1/7 13/3/7 16/2/7 1/1/7
f 1/1/7 16/2/7 3/4/7 1/1/7
f 16/2/8 17/6/8 7/5/8 3/4/8
f 13/3/8 14/7/8 17/6/8 16/2/8
f 6/9/9 7/8/9 17/11/9 18/10/9
f 5/12/9 6/9/9 18/10/9 11/13/9
f 11/13/9 18/10/9 15/15/9 10/14/9
f 18/10/9 17/11/9 14/16/9 15/15/9
f 1/10/10 1/10/10 1/10/10 1/10/10
f 1/10/10 1/10/10 1/10/10 1/10/10
f 1/10/10 1/10/10 1/10/10 1/10/10
f 1/10/10 1/10/10 1/10/10 1/10/10

